<svg xmlns="http://www.w3.org/2000/svg" viewBox="0 0 16 16"><defs><style>.cls-1{opacity:0;}</style></defs><title>css-node2</title><g id="Layer_2" data-name="Layer 2"><g id="css-node2"><rect id="don_t_crop" data-name="don&apos;t crop" class="cls-1" width="16" height="16"/><polygon points="1 6 1 11 5 11 5 10 2 10 2 7 5 7 5 6 1 6"/><polygon points="6 6 6 9 9 9 9 10 6 10 6 11 10 11 10 8 7 8 7 7 10 7 10 6 6 6"/><polygon points="11 6 11 9 14 9 14 10 11 10 11 11 15 11 15 8 12 8 12 7 15 7 15 6 11 6"/></g></g></svg>