<?xml version="1.0" encoding="utf-8"?>
<!-- Generator: Adobe Illustrator 19.2.1, SVG Export Plug-In . SVG Version: 6.00 Build 0)  -->
<svg version="1.0" id="Ebene_1" xmlns="http://www.w3.org/2000/svg" xmlns:xlink="http://www.w3.org/1999/xlink" x="0px" y="0px"
	 viewBox="0 0 16 16" style="enable-background:new 0 0 16 16;" xml:space="preserve">
<style type="text/css">
	.st0{fill:#FFFFFF;}
	.st1{fill:#1F1D21;}
	.st2{enable-background:new    ;}
	.st3{fill:#C75052;}
	.st4{fill:#AD1121;}
</style>
<g>
	<path class="st0" d="M13.3,4.7c-2.1,0-4.3,0-6.4,0c-1.8,0-5.7-0.7-6.3,1.6c-0.3,1.3-0.1,3.3,1.3,3.9c0.7,0.3,1.7,0.1,2.4,0.1
		c2.7,0,5.3,0,8,0c1.2,0,2.5,0,3-1.4C15.9,7.3,15.4,4.7,13.3,4.7z"/>
	<path class="st1" d="M13.3,10.8H2.7C1.2,10.8,0,9.6,0,8.1V6.8c0-1.5,1.2-2.7,2.7-2.7h10.6c1.5,0,2.7,1.2,2.7,2.7v1.3
		C16,9.6,14.8,10.8,13.3,10.8z M2.7,5.2C1.7,5.2,1,5.9,1,6.8v1.3C1,9,1.7,9.8,2.7,9.8h10.6C14.2,9.8,15,9,15,8.1V6.8
		c0-0.9-0.7-1.7-1.7-1.7H2.7z"/>
</g>
<g id="XMLID_389_">
	<path id="XMLID_390_" class="st1" d="M9,11.8c0.1-0.4,0.2-0.8,0.3-1.1c0.1-0.3,0-0.5-0.1-0.7c-1-1.6-2-3.3-3-4.9
		C6,4.8,6,4.7,6.1,4.4C6.5,3.6,6.5,2.8,6.2,2C5.3-0.1,3-0.5,1.5,0.5C0.4,1.2-0.2,2.5,0,3.7C0.3,5,1.2,6.1,2.5,6.3
		c0.7,0.1,1,0.4,1.3,1c0,0,0,0,0,0.1C4,7.4,4.1,7.5,4.2,7.5C4.6,7.6,5,7.7,5.4,7.7C5.3,8.2,5.3,8.6,5.2,8.9C5.6,9,5.9,9.1,6.3,9.2
		c-0.1,0.4-0.2,0.7-0.4,1.2c0.4,0,0.8,0.1,1.2,0.1c-0.1,0.4-0.2,0.7-0.3,1c0.7,0.2,1.3,0.3,1.9,0.5C8.8,12,9,11.9,9,11.8z M1.8,3.5
		C1.4,2.9,1.7,2.1,2.3,1.7C2.9,1.4,3.7,1.6,4,2.2C4.4,2.8,4.2,3.6,3.6,4C3,4.3,2.1,4.1,1.8,3.5z"/>
</g>
<g class="st2">
	<circle class="st3" cx="13" cy="13" r="2.8"/>
	<path class="st4" d="M13,16c-1.7,0-3-1.4-3-3c0-1.7,1.4-3,3-3c1.7,0,3,1.4,3,3C16,14.6,14.6,16,13,16z M13,10.4
		c-1.4,0-2.5,1.1-2.5,2.5s1.1,2.5,2.5,2.5s2.5-1.1,2.5-2.5S14.4,10.4,13,10.4z"/>
</g>
</svg>
