<?xml version="1.0" encoding="utf-8"?>
<!-- Generator: Adobe Illustrator 19.2.1, SVG Export Plug-In . SVG Version: 6.00 Build 0)  -->
<svg version="1.0" id="Ebene_1" xmlns="http://www.w3.org/2000/svg" xmlns:xlink="http://www.w3.org/1999/xlink" x="0px" y="0px"
	 viewBox="0 0 16 16" style="enable-background:new 0 0 16 16;" xml:space="preserve">
<style type="text/css">
	.st0{fill:#FFFFFF;}
	.st1{enable-background:new    ;}
	.st2{fill:#C75052;}
	.st3{fill:#AD1121;}
</style>
<g>
	<g>
		<g>
			<polygon class="st0" points="12.6,15.5 3,15.5 3,1.9 9.9,1.9 12.6,4.5 			"/>
			<path d="M13.1,16H2.5V1.4h7.6l3,2.9V16z M3.5,15h8.6V4.8L9.7,2.4H3.5V15z"/>
		</g>
		<polygon points="12.7,5.1 9.3,5.1 9.3,1.7 		"/>
	</g>
</g>
<g class="st1">
	<polygon class="st2" points="3.5,0.4 0.5,4.6 2.7,4.6 2.7,11.2 4.3,11.2 4.3,4.6 6.5,4.6 	"/>
	<path class="st3" d="M4.5,11.4H2.4V4.9H0L3.5,0L7,4.9H4.5V11.4z M2.9,10.9h1.2V4.4h2L3.5,0.8L0.9,4.4h2V10.9z"/>
</g>
<g class="st1">
	<circle class="st2" cx="13" cy="13" r="2.8"/>
	<path class="st3" d="M13,16c-1.7,0-3-1.4-3-3c0-1.7,1.4-3,3-3c1.7,0,3,1.4,3,3C16,14.6,14.6,16,13,16z M13,10.4
		c-1.4,0-2.5,1.1-2.5,2.5s1.1,2.5,2.5,2.5s2.5-1.1,2.5-2.5S14.4,10.4,13,10.4z"/>
</g>
</svg>
