<?xml version="1.0" encoding="utf-8"?>
<!-- Generator: Adobe Illustrator 19.2.1, SVG Export Plug-In . SVG Version: 6.00 Build 0)  -->
<svg version="1.0" id="Ebene_1" xmlns="http://www.w3.org/2000/svg" xmlns:xlink="http://www.w3.org/1999/xlink" x="0px" y="0px"
	 viewBox="0 0 16 16" style="enable-background:new 0 0 16 16;" xml:space="preserve">
<style type="text/css">
	.st0{fill:#FFFFFF;}
	.st1{fill:#222221;}
	.st2{enable-background:new    ;}
	.st3{fill:#C75052;}
	.st4{fill:#AD1121;}
	.st5{fill:#88BF65;}
	.st6{fill:#608248;}
</style>
<g>
	<path class="st0" d="M7.1,0.8c-1.6,0-3.2-0.1-4.8,0C-0.3,0.7,0.5,4,0.5,5.7c0,1,0.1,2.1,1.2,2.4C2.4,8.3,3.3,8.2,4,8.2
		c1.6,0,4.7,0.6,4.9-1.8c0.1-1,0-2,0-3C8.8,2.2,8.6,0.8,7.1,0.8z"/>
	<path class="st1" d="M7.1,8.7H2.2C1,8.7,0,7.7,0,6.4V2.6c0-1.2,1-2.2,2.2-2.2h4.9c1.2,0,2.2,1,2.2,2.2v3.9C9.3,7.7,8.3,8.7,7.1,8.7
		z M2.2,1.3C1.5,1.3,1,1.9,1,2.6v3.9c0,0.7,0.5,1.2,1.2,1.2h4.9c0.7,0,1.2-0.5,1.2-1.2V2.6c0-0.7-0.5-1.3-1.2-1.3H2.2z"/>
</g>
<g class="st2">
	<circle class="st3" cx="13" cy="13" r="2.8"/>
	<path class="st4" d="M13,16c-1.7,0-3-1.4-3-3c0-1.7,1.4-3,3-3c1.7,0,3,1.4,3,3S14.6,16,13,16z M13,10.4c-1.4,0-2.5,1.1-2.5,2.5
		s1.1,2.5,2.5,2.5s2.5-1.1,2.5-2.5S14.4,10.4,13,10.4z"/>
</g>
<g class="st2">
	<path class="st5" d="M8,11.1c-0.3,0-0.7-0.1-0.9-0.4L3.3,6.9C2.2,5.8,4,4,5.1,5.2l2.7,2.7l4.3-7c0.9-1.4,3,0,2.1,1.3L9,10.5
		C8.8,10.9,8.4,11.1,8,11.1z"/>
	<path class="st6" d="M8,11.3c-0.4,0-0.8-0.2-1.1-0.4L3.1,7.1C1.8,5.7,3.9,3.6,5.3,5l2.4,2.4l4.2-6.7c1-1.7,3.6-0.1,2.6,1.6
		l-5.2,8.3C9,11.1,8.5,11.3,8,11.3z M4.2,5C3.3,5,2.9,6.1,3.5,6.8l3.8,3.8c0.5,0.5,1.2,0.4,1.6-0.2L14,2c0.7-1.1-1-2.2-1.7-1.1
		L7.8,8.2L4.9,5.3C4.7,5.1,4.5,5,4.2,5z"/>
</g>
</svg>
