<?xml version="1.0" encoding="utf-8"?>
<!-- Generator: Adobe Illustrator 19.2.1, SVG Export Plug-In . SVG Version: 6.00 Build 0)  -->
<svg version="1.0" id="Ebene_1" xmlns="http://www.w3.org/2000/svg" xmlns:xlink="http://www.w3.org/1999/xlink" x="0px" y="0px"
	 viewBox="0 0 16 16" style="enable-background:new 0 0 16 16;" xml:space="preserve">
<style type="text/css">
	.st0{fill:#FFFFFF;}
</style>
<g>
	<g>
		<path class="st0" d="M13.3,2.5H2.7c-1.2,0-2.2,1-2.2,2.2l0,1.3c0,1.2,1,2.2,2.2,2.2h10.7c1.2,0,2.2-1,2.2-2.2V4.7
			C15.5,3.5,14.5,2.5,13.3,2.5z"/>
		<path d="M13.3,8.7H2.7C1.2,8.7,0,7.5,0,6V4.7C0,3.2,1.2,2,2.7,2h10.7C14.8,2,16,3.2,16,4.7V6C16,7.5,14.8,8.7,13.3,8.7z M2.7,3
			C1.7,3,1,3.8,1,4.7V6c0,0.9,0.7,1.7,1.7,1.7h10.7C14.3,7.7,15,6.9,15,6V4.7C15,3.8,14.3,3,13.3,3H2.7z"/>
	</g>
</g>
<g>
	<rect x="10.3" y="10.2" width="5.7" height="1"/>
	<rect x="10.3" y="12" width="5.7" height="1"/>
	<rect x="10.3" y="13.8" width="5.7" height="1"/>
</g>
</svg>
