<?xml version="1.0" encoding="utf-8"?>
<!-- Generator: Adobe Illustrator 19.2.1, SVG Export Plug-In . SVG Version: 6.00 Build 0)  -->
<svg version="1.0" id="Ebene_1" xmlns="http://www.w3.org/2000/svg" xmlns:xlink="http://www.w3.org/1999/xlink" x="0px" y="0px"
	 viewBox="0 0 16 16" style="enable-background:new 0 0 16 16;" xml:space="preserve">
<style type="text/css">
	.st0{fill:#FFFFFF;}
	.st1{fill:#DA9144;enable-background:new    ;}
	.st2{enable-background:new    ;}
	.st3{fill:#C75052;}
	.st4{fill:#AD1121;}
</style>
<g>
	<g>
		<rect x="0.4" y="0.4" class="st0" width="12" height="12.6"/>
		<path d="M12.9,13.5H0V0h12.9V13.5z M0.9,12.6H12V0.9H0.9V12.6z"/>
	</g>
	<rect x="0.4" y="2.6" width="11.9" height="0.9"/>
	<g>
		<path d="M2.9,9.3l1-0.1C4,9.9,5,10.3,5.4,9.5C5.8,8.7,5.1,8,4.3,8.3l0.1-0.9c0.6,0,1.3-0.6,0.7-1.2C4.6,5.8,4,6.3,4,6.8L3,6.6
			c0.2-1.2,1.4-1.8,2.5-1.3c1.1,0.5,1,1.9,0,2.4c1.5,0.3,1.2,2.3,0,2.9C4.5,11.2,3,10.5,2.9,9.3z"/>
		<path d="M10,10.7H8.9v-4C8.5,7.1,8,7.4,7.5,7.6v-1c0.3-0.1,0.6-0.3,0.9-0.5S9,5.5,9.1,5.2H10V10.7z"/>
	</g>
	<rect x="0.9" y="0.9" class="st1" width="11.1" height="1.9"/>
</g>
<g class="st2">
	<circle class="st3" cx="13" cy="13" r="2.8"/>
	<path class="st4" d="M13,16c-1.7,0-3-1.4-3-3c0-1.7,1.4-3,3-3c1.7,0,3,1.4,3,3C16,14.6,14.6,16,13,16z M13,10.4
		c-1.4,0-2.5,1.1-2.5,2.5s1.1,2.5,2.5,2.5s2.5-1.1,2.5-2.5S14.4,10.4,13,10.4z"/>
</g>
</svg>
