<?xml version="1.0" encoding="utf-8"?>
<!-- Generator: Adobe Illustrator 19.2.1, SVG Export Plug-In . SVG Version: 6.00 Build 0)  -->
<svg version="1.0" id="Ebene_1" xmlns="http://www.w3.org/2000/svg" xmlns:xlink="http://www.w3.org/1999/xlink" x="0px" y="0px"
	 viewBox="0 0 16 16" style="enable-background:new 0 0 16 16;" xml:space="preserve">
<style type="text/css">
	.st0{fill:#FFFFFF;}
	.st1{enable-background:new    ;}
	.st2{fill:#C75052;}
	.st3{fill:#AD1121;}
</style>
<g>
	<g>
		<path class="st0" d="M13.3,3.7H2.7c-1.2,0-2.2,1-2.2,2.2l0,1.3c0,1.2,1,2.2,2.2,2.2h10.7c1.2,0,2.2-1,2.2-2.2V5.9
			C15.5,4.7,14.5,3.7,13.3,3.7z"/>
		<path d="M13.3,9.8H2.7C1.2,9.8,0,8.6,0,7.2V5.9c0-1.5,1.2-2.7,2.7-2.7h10.7c1.5,0,2.7,1.2,2.7,2.7v1.3C16,8.6,14.8,9.8,13.3,9.8z
			 M2.7,4.2C1.7,4.2,1,4.9,1,5.9v1.3c0,0.9,0.7,1.7,1.7,1.7h10.7c0.9,0,1.7-0.7,1.7-1.7V5.9c0-0.9-0.7-1.7-1.7-1.7H2.7z"/>
	</g>
	<g>
		<path d="M2.2,6.3h0.9V5.4h0.7v0.9h0.9V7H3.9v0.9H3.1V7H2.2V6.3z"/>
		<path d="M5.9,4.9h0.5L5.5,8.4H5.1L5.9,4.9z"/>
		<path d="M6.5,6.3h2.2V7H6.5V6.3z"/>
	</g>
</g>
<g class="st1">
	<circle class="st2" cx="13" cy="11.5" r="2.8"/>
	<path class="st3" d="M13,14.5c-1.7,0-3-1.4-3-3c0-1.7,1.4-3,3-3c1.7,0,3,1.4,3,3C16,13.2,14.6,14.5,13,14.5z M13,8.9
		c-1.4,0-2.5,1.1-2.5,2.5S11.6,14,13,14s2.5-1.1,2.5-2.5S14.4,8.9,13,8.9z"/>
</g>
</svg>
