<svg xmlns="http://www.w3.org/2000/svg" viewBox="0 0 16 16"><defs><style>.cls-1{fill:#f7df1e;}</style></defs><title>generic_javascript_view</title><g id="Layer_2" data-name="Layer 2"><g id="production"><g id="generic_javascript_view"><rect id="background" class="cls-1" width="16" height="16"/><path id="j" d="M4.2,13.36l1.22-.74c.24.42.45.78,1,.78s.81-.2.81-1V7.34h1.5v5.13a2,2,0,0,1-2.24,2.27A2.32,2.32,0,0,1,4.2,13.36"/><path id="s" d="M9.51,13.22l1.23-.71a1.64,1.64,0,0,0,1.48.91c.62,0,1-.31,1-.74s-.41-.7-1.1-1l-.37-.16c-1.09-.46-1.81-1-1.81-2.27a2,2,0,0,1,2.2-2,2.21,2.21,0,0,1,2.14,1.2l-1.17.75a1,1,0,0,0-1-.64.65.65,0,0,0-.72.64c0,.45.28.63.93.91l.37.16c1.28.55,2,1.11,2,2.37s-1.06,2.09-2.49,2.09a2.88,2.88,0,0,1-2.74-1.53"/></g></g></g></svg>