<svg xmlns="http://www.w3.org/2000/svg" viewBox="0 0 16 16"><defs><style>.cls-1{fill:#f7df1e;}.cls-2{fill:#fff;}</style></defs><title>generic_javascript_view</title><g id="Layer_2" data-name="Layer 2"><g id="production"><g id="generic_javascript_view"><rect id="background" class="cls-1" width="16" height="16"/><rect class="cls-2" x="5.5" y="4.5" width="1" height="6"/><path d="M6,5V5M7,4H5v7H7V4Z"/><rect class="cls-2" x="3.5" y="10.5" width="2" height="1"/><polygon points="6 10 3 10 3 12 6 12 6 10 6 10"/><rect class="cls-2" x="9.5" y="4.5" width="2" height="1"/><polygon points="12 4 9 4 9 6 12 6 12 4 12 4"/><rect class="cls-2" x="8.5" y="5.5" width="1" height="2"/><path d="M9,6V6m1-1H8V8h2V5Z"/><rect class="cls-2" x="11.5" y="8.5" width="1" height="2"/><path d="M12,9V9m1-1H11v3h2V8Z"/><rect class="cls-2" x="9.5" y="10.5" width="2" height="1"/><polygon points="12 10 9 10 9 12 12 12 12 10 12 10"/><rect class="cls-2" x="8" y="10" width="1" height="1"/><polygon points="9 10 8 10 8 11 9 11 9 10 9 10"/><rect class="cls-2" x="9.5" y="7.5" width="2" height="1"/><polygon points="12 7 9 7 9 9 12 9 12 7 12 7"/><rect class="cls-2" x="11" y="5" width="2" height="1"/><polygon points="13 5 11 5 11 6 13 6 13 5 13 5"/><path d="M15,1V15H1V1H15m1-1H0V16H16V0Z"/></g></g></g></svg>