<?xml version="1.0" encoding="utf-8"?>
<!-- Generator: Adobe Illustrator 23.0.1, SVG Export Plug-In . SVG Version: 6.00 Build 0)  -->
<svg version="1.0" id="Ebene_1" xmlns="http://www.w3.org/2000/svg" xmlns:xlink="http://www.w3.org/1999/xlink" x="0px" y="0px"
	 viewBox="0 0 16 16" style="enable-background:new 0 0 16 16;" xml:space="preserve">
<style type="text/css">
	.st0{fill:none;stroke:#000000;stroke-width:0.25;stroke-miterlimit:10;}
	.st1{fill:#7C7C7C;stroke:#000000;stroke-width:0.25;stroke-miterlimit:10;}
	.st2{fill:#AAAAAA;stroke:#000000;stroke-width:0.25;stroke-miterlimit:10;}
	.st3{fill:#636363;stroke:#000000;stroke-width:0.25;stroke-miterlimit:10;}
	.st4{fill:none;stroke:#000000;stroke-width:0.75;stroke-miterlimit:10;}
	.st5{stroke:#000000;stroke-width:0.5;stroke-miterlimit:10;}
</style>
<g>
	<path d="M12.4,16C12.3,16,12.3,16,12.4,16c-0.1,0-0.2-0.1-0.3-0.1c-0.1-0.1-0.3-0.2-0.4-0.4c-0.4-0.4-0.8-0.8-1.2-1.2
		c-0.1-0.1-0.2-0.2-0.2-0.4c0-1,0-1.9,0-2.9c0-0.1,0-0.1-0.1-0.1c-0.1-0.1-0.3-0.3-0.4-0.4C9.1,9.7,8.3,9,7.5,8.2
		C7.4,8,7.2,7.9,7.2,7.8c0,0,0-0.1,0-0.1c0,0,0,0,0-0.1c0-0.1,0.1-0.2,0.2-0.2c0,0,0.1,0,0.1,0c2.7,0,5.3,0,8,0c0,0,0,0,0.1,0
		c0.1,0,0.2,0.1,0.2,0.1c0,0.1,0.1,0.1,0.1,0.2c0,0,0,0.1,0,0.1c0,0.1-0.1,0.1-0.1,0.2c-0.4,0.4-0.7,0.7-1.1,1.1
		c-0.6,0.6-1.3,1.3-1.9,1.9c0,0-0.1,0.1-0.1,0.1c0,1.5,0,3,0,4.4c0,0.1,0,0.1,0,0.2c0,0.1-0.1,0.2-0.2,0.2C12.5,16,12.4,16,12.4,16z
		"/>
</g>
<rect x="0.1" y="0.1" class="st0" width="10" height="10"/>
<rect x="0.1" y="0.1" class="st1" width="3.3" height="3.3"/>
<rect x="3.5" y="0.1" class="st0" width="3.3" height="3.3"/>
<rect x="6.8" y="0.1" class="st0" width="3.3" height="3.3"/>
<rect x="0.1" y="3.5" class="st2" width="3.3" height="3.3"/>
<rect x="3.5" y="3.5" class="st0" width="3.3" height="3.3"/>
<rect x="6.8" y="3.5" class="st2" width="3.3" height="3.3"/>
<rect x="0.1" y="6.8" class="st3" width="3.3" height="3.3"/>
<rect x="3.5" y="6.8" class="st0" width="3.3" height="3.3"/>
<line class="st4" x1="1.1" y1="5.1" x2="7.8" y2="5.1"/>
<line class="st0" x1="8.3" y1="5.3" x2="8.3" y2="5.3"/>
<line class="st0" x1="8.2" y1="4.8" x2="8.2" y2="4.8"/>
<polygon class="st5" points="7.8,4.5 7.8,5.8 8.6,5.1 "/>
</svg>
