<svg xmlns="http://www.w3.org/2000/svg" viewBox="0 0 16 16"><defs><style>.cls-1{fill:#fff;}.cls-2{fill:none;stroke:#000;stroke-miterlimit:10;}</style></defs><title>sunburst_chart (2)</title><g id="Layer_2" data-name="Layer 2"><g id="production"><g id="sunburst_chart"><circle class="cls-1" cx="8" cy="8" r="8"/><path d="M8,1A7,7,0,1,1,1,8,7,7,0,0,1,8,1M8,0a8,8,0,1,0,8,8A8,8,0,0,0,8,0Z"/><path d="M8,6A2,2,0,1,1,6,8,2,2,0,0,1,8,6M8,5a3,3,0,1,0,3,3A3,3,0,0,0,8,5Z"/><circle class="cls-2" cx="8" cy="8" r="5"/><line class="cls-2" x1="8" y1="5.5" x2="8" y2="0.5"/><line class="cls-2" x1="10.67" y1="8.5" x2="15.5" y2="8.5"/><line class="cls-2" x1="4.5" y1="11.5" x2="2.5" y2="13.5"/><line class="cls-2" x1="8" y1="12.5" x2="8" y2="15.5"/><line class="cls-2" x1="3.5" y1="8" x2="0.5" y2="8"/></g></g></g></svg>