<?xml version="1.0" encoding="utf-8"?>
<!-- Generator: Adobe Illustrator 20.1.0, SVG Export Plug-In . SVG Version: 6.00 Build 0)  -->
<svg version="1.0" id="Ebene_1" xmlns="http://www.w3.org/2000/svg" xmlns:xlink="http://www.w3.org/1999/xlink" x="0px" y="0px"
	 viewBox="0 0 16 16" style="enable-background:new 0 0 16 16;" xml:space="preserve">
<style type="text/css">
	.st0{fill:#1F1D21;stroke:#000000;stroke-miterlimit:10;}
	.st1{stroke:#000000;stroke-miterlimit:10;}
</style>
<g>
	<path d="M4.8,14.6v-1H2.8v-0.8l2.2-3.2h0.8v3.2h0.6v0.8H5.7v1H4.8z M4.8,12.7V11l-1.2,1.7H4.8z"/>
	<path d="M7,14.6v-1h1v1H7z"/>
	<path d="M12,13.7v0.9H8.7c0.1-1.3,1.3-1.9,2.1-2.8c1-1.3-0.9-2-1-0.6l-1-0.1c0.3-2.6,4.7-1.3,2.7,1.2c-0.4,0.5-1.1,0.9-1.4,1.5H12z
		"/>
	<path d="M15.9,10.8L15,10.9c-0.1-0.5-0.5-0.7-0.9-0.4c-0.4,0.3-0.4,0.9-0.4,1.3c1.2-1.4,2.7,0.5,2.3,1.8c-0.4,1.3-2.2,1.5-2.9,0.4
		c-0.6-0.9-0.6-2.7,0-3.6C13.8,9.1,15.7,9.3,15.9,10.8z M13.7,12.9c0,1.1,1.3,1.3,1.3,0.1C15.1,11.9,13.7,11.7,13.7,12.9z"/>
</g>
<line class="st0" x1="0.3" y1="4.4" x2="15.7" y2="4.4"/>
<polygon class="st1" points="9.6,2.8 9.6,6.1 10.2,7.3 10.8,6.1 10.8,2.8 "/>
</svg>
