<?xml version="1.0" encoding="utf-8"?>
<!-- Generator: Adobe Illustrator 19.2.1, SVG Export Plug-In . SVG Version: 6.00 Build 0)  -->
<svg version="1.0" id="Ebene_1" xmlns="http://www.w3.org/2000/svg" xmlns:xlink="http://www.w3.org/1999/xlink" x="0px" y="0px"
	 viewBox="0 0 16 16" style="enable-background:new 0 0 16 16;" xml:space="preserve">
<style type="text/css">
	.st0{fill:#FFFFFF;}
	.st1{fill:#1F1D21;}
</style>
<g>
	<path d="M4.8,14.6v-1H2.8v-0.8l2.2-3.2h0.8v3.2h0.6v0.8H5.7v1H4.8z M4.8,12.7V11l-1.2,1.7H4.8z"/>
	<path d="M7,14.6v-1h1v1H7z"/>
	<path d="M12,13.7v0.9H8.7c0.1-1.3,1.3-1.9,2.1-2.8c1-1.3-0.9-2-1-0.6l-1-0.1c0.3-2.6,4.7-1.3,2.7,1.2c-0.4,0.5-1.1,0.9-1.4,1.5H12z
		"/>
	<path d="M15.9,10.8L15,10.9c-0.1-0.5-0.5-0.7-0.9-0.4c-0.4,0.3-0.4,0.9-0.4,1.3c1.2-1.4,2.7,0.5,2.3,1.8c-0.4,1.3-2.2,1.5-2.9,0.4
		c-0.6-0.9-0.6-2.7,0-3.6C13.8,9.1,15.7,9.3,15.9,10.8z M13.7,12.9c0,1.1,1.3,1.3,1.3,0.1C15.1,11.9,13.7,11.7,13.7,12.9z"/>
</g>
<g>
	<path class="st0" d="M13.3,2.8c-2.1,0-4.3,0-6.4,0c-1.8,0-5.7-0.7-6.3,1.6C0.2,5.8,0.4,7.7,1.9,8.3c0.7,0.3,1.7,0.1,2.4,0.1
		c2.7,0,5.3,0,8,0c1.2,0,2.5,0,3-1.4C15.9,5.5,15.4,2.8,13.3,2.8z"/>
	<path class="st1" d="M13.3,8.9H2.7C1.2,8.9,0,7.7,0,6.3V5c0-1.5,1.2-2.7,2.7-2.7h10.6C14.8,2.3,16,3.5,16,5v1.3
		C16,7.7,14.8,8.9,13.3,8.9z M2.7,3.3C1.7,3.3,1,4,1,5v1.3c0,0.9,0.7,1.7,1.7,1.7h10.6c0.9,0,1.7-0.7,1.7-1.7V5
		c0-0.9-0.7-1.7-1.7-1.7H2.7z"/>
</g>
</svg>
