<svg width="16" height="16" viewBox="0 0 16 16" fill="none" xmlns="http://www.w3.org/2000/svg">
<g clip-path="url(#clip0)">
<path d="M0 14H2V13H1L1 3H9V5L12 2.5L9 0V2H0L0 14Z" fill="#201E1E"/>
<path d="M16 2L14 2V3H15V13H7V11L4 13.5L7 16V14H16V2Z" fill="#201E1E"/>
</g>
<path d="M13.0002 15.8C14.5466 15.8 15.8002 14.5463 15.8002 13C15.8002 11.4536 14.5466 10.2 13.0002 10.2C11.4538 10.2 10.2002 11.4536 10.2002 13C10.2002 14.5463 11.4538 15.8 13.0002 15.8Z" fill="#C75052"/>
<path d="M13 16C11.3 16 10 14.6 10 13C10 11.3 11.4 10 13 10C14.7 10 16 11.4 16 13C16 14.6 14.6 16 13 16ZM13 10.4C11.6 10.4 10.5 11.5 10.5 12.9C10.5 14.3 11.6 15.4 13 15.4C14.4 15.4 15.5 14.3 15.5 12.9C15.5 11.5 14.4 10.4 13 10.4Z" fill="#AD1121"/>
<path d="M6 11V5L10 8L6 11Z" fill="white"/>
<defs>
<clipPath id="clip0">
<rect width="16" height="16" fill="white"/>
</clipPath>
</defs>
</svg>
