<svg width="16" height="16" viewBox="0 0 16 16" fill="none" xmlns="http://www.w3.org/2000/svg">
<path d="M0.5 4.03878L6.5 0.577244L12.5 4.03878V10.9612L6.5 14.4228L0.5 10.9612V4.03878Z" fill="white" stroke="#201E1E"/>
<rect x="2" y="5" width="1" height="5" fill="#3E3A39"/>
<rect x="6.14941" y="3.95239" width="1" height="4.84719" transform="rotate(-60 6.14941 3.95239)" fill="black"/>
<rect x="10.0244" y="9.17664" width="1" height="4.83347" transform="rotate(60 10.0244 9.17664)" fill="black"/>
<path d="M13.0002 15.8C14.5466 15.8 15.8002 14.5463 15.8002 13C15.8002 11.4536 14.5466 10.2 13.0002 10.2C11.4538 10.2 10.2002 11.4536 10.2002 13C10.2002 14.5463 11.4538 15.8 13.0002 15.8Z" fill="#C75052"/>
<path d="M13 16C11.3 16 10 14.6 10 13C10 11.3 11.4 10 13 10C14.7 10 16 11.4 16 13C16 14.6 14.6 16 13 16ZM13 10.4C11.6 10.4 10.5 11.5 10.5 12.9C10.5 14.3 11.6 15.4 13 15.4C14.4 15.4 15.5 14.3 15.5 12.9C15.5 11.5 14.4 10.4 13 10.4Z" fill="#AD1121"/>
</svg>
